#!OML:ASF E:\Style3\Style3.ASF
:FULLY-SPECIFIED
:DEGREES
3392
root 0.433575 17.7985 0.439852 -167.431 75.8593 -181.306
lowerback -9.44668 -1.73412 -3.21
upperback -9.60209 -1.5429 0.616549
thorax -4.64013 -0.31896 2.33749
lowerneck 2.8419 -6.09479 -8.59475
upperneck 7.56964 -8.24154 2.39742
head 2.44199 -4.24647 2.12584
rclavicle 1.37907e-014 -1.04859e-014
rhumerus 57.0282 -33.5941 -36.3921
rradius 123.858
rwrist -70.9902
rhand -24.8497 8.27919
rfingers 7.12502
rthumb 1.65673 -21.6941
lclavicle 1.37907e-014 -1.04859e-014
lhumerus 69.2249 30.2022 33.5161
lradius 108.252
lwrist 98.3523
lhand 26.4099 29.0061
lfingers 7.12502
lthumb 50.4523 49.988
rfemur -12.9654 7.82061 16.6767
rtibia 17.8342
rfoot -15.7041 -28.9827
rtoes -7.48533
lfemur -8.33502 -25.3848 -10.9431
ltibia -1.74931e-014
lfoot -6.43436 16.8055
ltoes -22.8759
3393
root 0.436365 17.7991 0.438797 -167.419 75.8503 -181.288
lowerback -9.46356 -1.75748 -3.20303
upperback -9.58568 -1.57456 0.633295
thorax -4.61083 -0.336062 2.34885
lowerneck 2.76701 -6.082 -8.52391
upperneck 7.54347 -8.21372 2.31116
head 2.43612 -4.23193 2.08342
rclavicle -8.0632e-015 -3.42904e-015
rhumerus 57.2225 -33.5967 -36.693
rradius 123.89
rwrist -70.9575
rhand -24.7315 8.3715
rfingers 7.12502
rthumb 1.77092 -21.6009
lclavicle -8.0632e-015 -3.42904e-015
lhumerus 69.1732 30.2926 33.6386
lradius 108.448
lwrist 97.8789
lhand 25.81 28.6053
lfingers 7.12502
lthumb 49.9037 49.8784
rfemur -12.9376 7.88628 16.6798
rtibia 17.823
rfoot -15.7243 -29.0408
rtoes -7.36246
lfemur -8.30417 -25.3954 -10.9487
ltibia 2.8625e-014
lfoot -6.52761 16.7925
ltoes -23.4236
3394
root 0.43861 17.7998 0.436761 -167.584 75.8236 -181.456
lowerback -9.47552 -1.78744 -3.22873
upperback -9.56509 -1.61445 0.619805
thorax -4.57932 -0.356682 2.34649
lowerneck 2.6456 -6.05902 -8.43529
upperneck 7.55738 -8.17234 2.28892
head 2.45382 -4.20948 2.05762
rclavicle -3.90239e-014 -2.76808e-014
rhumerus 57.348 -33.6507 -36.92
rradius 123.98
rwrist -70.9075
rhand -24.695 8.39578
rfingers 7.12502
rthumb 1.80612 -21.5763
lclavicle -3.90239e-014 -2.76808e-014
lhumerus 69.1593 30.3844 33.7649
lradius 108.662
lwrist 97.3637
lhand 25.4707 28.3375
lfingers 7.12502
lthumb 49.593 49.7713
rfemur -12.8935 7.85202 16.6403
rtibia 17.7957
rfoot -15.7254 -29.0189
rtoes -7.42643
lfemur -8.29956 -25.4338 -10.9971
ltibia 3.18055e-014
lfoot -6.47897 16.7924
ltoes -23.5939
3395
root 0.441027 17.7996 0.436127 -167.658 75.833 -181.535
lowerback -9.48335 -1.79298 -3.24617
upperback -9.55785 -1.62134 0.608465
thorax -4.56673 -0.360106 2.3438
lowerneck 2.53407 -6.03913 -8.41518
upperneck 7.61126 -8.13857 2.31867
head 2.49041 -4.19212 2.06077
rclavicle -5.50385e-015 -9.54166e-015
rhumerus 57.4176 -33.6865 -37.1085
rradius 124.171
rwrist -70.7858
rhand -24.8236 8.39642
rfingers 7.12502
rthumb 1.68198 -21.5767
lclavicle -5.50385e-015 -9.54166e-015
lhumerus 69.2504 30.4286 34.0307
lradius 108.863
lwrist 96.8785
lhand 25.0944 28.4859
lfingers 7.12502
lthumb 49.2478 50.0948
rfemur -12.878 7.84459 16.6172
rtibia 17.777
rfoot -15.7524 -29.0049
rtoes -7.27607
lfemur -8.29066 -25.4314 -11.03
ltibia 1.27222e-014
lfoot -6.32821 16.8198
ltoes -24.1046
3396
root 0.442634 17.7978 0.435355 -167.522 75.8093 -181.367
lowerback -9.4588 -1.79002 -3.18093
upperback -9.53808 -1.62414 0.608017
thorax -4.56005 -0.366748 2.30701
lowerneck 2.42075 -6.02094 -8.42816
upperneck 7.6549 -8.10841 2.36583
head 2.52695 -4.17702 2.07557
rclavicle 2.43263e-014 1.23246e-014
rhumerus 57.5061 -33.7402 -37.2744
rradius 124.376
rwrist -70.6126
rhand -24.8251 8.63438
rfingers 7.12502
rthumb 1.68049 -21.3388
lclavicle 2.43263e-014 1.23246e-014
lhumerus 69.3825 30.495 34.3562
lradius 109.054
lwrist 96.5248
lhand 24.6635 28.7268
lfingers 7.12502
lthumb 48.852 50.5321
rfemur -12.8572 7.8522 16.6621
rtibia 17.7712
rfoot -15.7646 -29.038
rtoes -7.31472
lfemur -8.27505 -25.4488 -10.9917
ltibia -1.74931e-014
lfoot -6.49301 16.8634
ltoes -23.0406
